<svg width="193" height="163" viewBox="0 0 193 163" fill="none" xmlns="http://www.w3.org/2000/svg">
<path fill-rule="evenodd" clip-rule="evenodd" d="M0.546875 161.614C7.14936 160.154 13.0796 157.648 18.1575 153.772C27.278 146.81 29.2274 143.329 34.7972 132.154H35.8416C35.8416 149.142 36.8511 153.354 38.8702 160.491H66.197C63.6271 146.016 62.4613 131.327 62.7159 116.628L62.5418 64.1331C62.5418 52.2972 60.5924 38.9993 55.127 29.7744C49.7662 20.4799 41.8531 12.9172 32.3256 7.98251C22.5401 2.75688 11.6267 0.0188747 0.546875 0V25.2866C10.0234 25.5259 19.666 27.0291 25.6767 33.2903C32.3605 40.2525 34.4491 51.9143 34.4491 62.7406V69.7029L3.7804 72.453C2.68997 72.5456 1.61213 72.6465 0.546875 72.7559V88.8363C2.6313 88.5288 4.7999 88.2778 7.05267 88.0832L34.6928 85.6116V98.5266C35.1755 110.638 31.0451 122.482 23.1355 131.667C19.4997 135.877 14.9674 139.218 9.87121 141.447C6.88504 142.753 3.7497 143.658 0.546875 144.145V161.614Z" fill="white"/>
<path fill-rule="evenodd" clip-rule="evenodd" d="M192.107 135.183V159.847C185.05 161.537 177.81 162.36 170.547 162.293C156.566 162.493 142.773 159.062 130.514 152.337C118.726 145.51 108.979 135.654 102.282 123.792C95.0958 110.611 91.4947 95.774 91.839 80.765C91.6353 69.6864 93.7335 58.6861 98.0006 48.4602C102.088 38.8232 108.093 30.118 115.65 22.8739C123.118 15.6606 131.914 9.96256 141.549 6.09486C151.306 2.01895 161.783 -0.0527897 172.357 0.00289159C179.03 -0.0559023 185.672 0.782199 192.107 2.4883V28.4867C185.904 25.7766 179.188 24.3924 172.392 24.4404C163.014 24.4674 153.794 26.8622 145.588 31.4026C137.442 36.0416 130.659 42.7403 125.919 50.8273C120.546 59.8561 117.853 70.2278 118.156 80.7302C117.749 91.817 120.437 102.798 125.919 112.443C130.942 120.628 138.185 127.22 146.806 131.45C155.65 135.548 165.291 137.64 175.038 137.577C180.835 137.688 186.596 136.875 192.107 135.183Z" fill="white"/>
</svg>
