<svg width="102" height="88" viewBox="0 0 102 88" fill="none" xmlns="http://www.w3.org/2000/svg">
<path fill-rule="evenodd" clip-rule="evenodd" d="M0.15625 86.1011C3.65958 85.3262 6.80628 83.9963 9.50075 81.9395C14.3415 78.2442 15.3762 76.3966 18.3324 70.4657H18.8867C18.8867 79.4821 19.4225 81.7178 20.4941 85.5054H34.998C33.634 77.823 33.0152 70.0267 33.1503 62.2253L33.058 34.3632C33.058 28.0812 32.0233 21.0233 29.1225 16.1271C26.2772 11.194 22.0773 7.18009 17.0206 4.56097C11.8276 1.78782 6.03611 0.334629 0.15625 0.324219V13.7453C5.1852 13.8725 10.3019 14.6706 13.4916 17.9932C17.0391 21.6884 18.1476 27.878 18.1476 33.6241V37.3194L1.87005 38.779C1.29212 38.8281 0.720856 38.8816 0.15625 38.9395V47.4741C1.26183 47.3111 2.41202 47.178 3.60682 47.0748L18.277 45.763V52.6177C18.5331 59.046 16.3409 65.3321 12.1428 70.2071C10.2132 72.4413 7.80762 74.2151 5.10277 75.3981C3.5186 76.0909 1.85533 76.5708 0.15625 76.8294V86.1011Z" fill="#2763BD"/>
<path fill-rule="evenodd" clip-rule="evenodd" d="M101.824 72.7491V85.8393C98.0783 86.7367 94.2355 87.1732 90.3805 87.1378C82.9601 87.2437 75.6391 85.423 69.1328 81.8536C62.8764 78.23 57.7029 72.9991 54.1486 66.7031C50.3343 59.7071 48.423 51.8325 48.6057 43.8664C48.4976 37.9864 49.6112 32.1479 51.876 26.7205C54.0457 21.6056 57.2327 16.9853 61.2435 13.1404C65.2074 9.31192 69.8755 6.28768 74.9898 4.23488C80.1683 2.07157 85.7291 0.971982 91.3413 1.00153C94.883 0.970329 98.4084 1.41517 101.824 2.32073V16.1195C98.5315 14.6811 94.967 13.9464 91.3597 13.9719C86.382 13.9862 81.4885 15.2572 77.133 17.6671C72.8098 20.1292 69.2098 23.6846 66.6939 27.9769C63.842 32.7689 62.413 38.2738 62.5738 43.8479C62.3575 49.7323 63.7842 55.5606 66.6939 60.6798C69.3596 65.0242 73.2039 68.5225 77.7797 70.7678C82.4738 72.9427 87.5906 74.0531 92.7639 74.0197C95.8408 74.0788 98.8984 73.6472 101.824 72.7491Z" fill="#2763BD"/>
</svg>
