<svg width="207" height="164" viewBox="0 0 207 164" fill="none" xmlns="http://www.w3.org/2000/svg">
<path d="M206.208 80.0774C206.491 65.796 203.289 51.661 196.879 38.8957C191.179 27.1763 182.363 17.2522 171.397 10.2112C160.33 3.34328 147.521 -0.197304 134.497 0.0115156C120.857 -0.236552 107.445 3.52809 95.9262 10.8378C84.6016 17.9346 75.439 28.0001 69.4348 39.94C63.0622 52.931 59.8534 67.2454 60.0705 81.7135C59.833 96.5277 63.1391 111.184 69.7133 124.462C75.8752 136.612 85.3657 146.758 97.077 153.717C108.788 160.676 122.238 164.161 135.855 163.764C147.98 164.023 160.043 161.968 171.397 157.707C179.798 153.933 187.149 148.16 192.806 140.893C194.657 138.834 196.151 136.481 197.227 133.93L181.353 118.37C177.982 124.277 173.346 129.365 167.777 133.269C158.339 139.774 147.068 143.092 135.611 142.738C126.925 142.588 118.466 139.941 111.243 135.114C104.139 130.306 98.3378 123.812 94.3596 116.212C90.2953 107.928 88.2326 98.8068 88.3374 89.5809L205.547 89.5809C206.048 86.4389 206.27 83.2586 206.208 80.0774ZM88.4069 71.4094C88.4113 58.2817 93.2292 45.6113 101.948 35.7975C106.008 31.2997 110.988 27.7283 116.55 25.3256C122.112 22.923 128.126 21.7454 134.184 21.873C142.295 21.7274 150.267 23.993 157.09 28.3827C163.971 32.7808 169.502 38.9978 173.068 46.3453C176.965 54.1295 178.924 62.7402 178.777 71.4442L88.4069 71.4094Z" fill="white"/>
<path fill-rule="evenodd" clip-rule="evenodd" d="M0.105469 161.719C1.04498 161.494 1.98123 161.253 2.91384 160.997C9.96871 159.135 16.7632 156.399 23.1392 152.851C28.3129 150.143 33.0151 146.617 37.0637 142.408L24.3576 122.461C19.3551 127.244 13.6348 131.214 7.40446 134.227C5.0355 135.347 2.59595 136.291 0.105469 137.055V161.719ZM0.105469 30.3587C1.24549 30.8568 2.36817 31.3997 3.47083 31.9867C10.5591 35.7812 17.0559 40.5894 22.7562 46.2593L39.7093 29.2714C35.8981 24.0921 31.1805 19.6457 25.7848 16.1476C19.5431 11.6884 12.6345 8.24584 5.31582 5.94789C3.59685 5.35464 1.85887 4.82527 0.105469 4.36035V30.3587Z" fill="white"/>
</svg>
