<svg width="111" height="88" viewBox="0 0 111 88" fill="none" xmlns="http://www.w3.org/2000/svg">
<path d="M110.21 43.3081C110.36 35.7282 108.661 28.2259 105.259 21.4507C102.233 15.2306 97.5543 9.96332 91.734 6.22629C85.8599 2.5811 79.0615 0.701921 72.1492 0.812753C64.9097 0.681089 57.7911 2.67919 51.6775 6.55887C45.6669 10.3255 40.8039 15.6678 37.6171 22.005C34.2348 28.9 32.5317 36.4974 32.647 44.1765C32.5209 52.0392 34.2756 59.8182 37.7649 66.8653C41.0354 73.3139 46.0725 78.6992 52.2883 82.3927C58.5042 86.0862 65.6424 87.9356 72.8698 87.725C79.3051 87.8628 85.7076 86.7717 91.734 84.5101C96.1931 82.5073 100.094 79.4435 103.097 75.5861C104.079 74.4936 104.872 73.2447 105.443 71.8909L97.0182 63.632C95.2291 66.7673 92.7684 69.4678 89.8125 71.5398C84.8032 74.9926 78.8214 76.7535 72.7404 76.5654C68.1303 76.4859 63.6404 75.0812 59.8071 72.5191C56.0364 69.9673 52.9575 66.5202 50.8461 62.4865C48.6889 58.0902 47.5941 53.2488 47.6497 48.3521L109.859 48.3521C110.125 46.6845 110.243 44.9965 110.21 43.3081V43.3081ZM47.6867 38.7075C47.689 31.7399 50.2461 25.0151 54.8739 19.8063C57.0285 17.4191 59.6717 15.5235 62.6238 14.2483C65.5759 12.9731 68.7678 12.3481 71.9829 12.4158C76.288 12.3385 80.5193 13.541 84.1403 15.8709C87.7929 18.2052 90.7281 21.5049 92.6209 25.4046C94.6894 29.5361 95.7289 34.1063 95.6509 38.726L47.6867 38.7075Z" fill="#2763BD"/>
<path fill-rule="evenodd" clip-rule="evenodd" d="M0.820312 86.6375C1.31876 86.5181 1.81548 86.3905 2.31027 86.2548C6.05468 85.2666 9.66086 83.8142 13.045 81.9313C15.791 80.4939 18.2866 78.6222 20.4355 76.3885L13.6916 65.8016C11.0366 68.34 8.00049 70.4472 4.69369 72.0465C3.43654 72.6405 2.14194 73.1415 0.820312 73.5473V86.6375ZM0.820312 16.918C1.42518 17.1823 2.02085 17.4704 2.60589 17.7818C6.36802 19.7958 9.81625 22.3477 12.8417 25.3571L21.8396 16.3407C19.8168 13.5917 17.3129 11.2318 14.4491 9.37511C11.1363 7.00837 7.46956 5.18123 3.58513 3.96158C2.67298 3.64678 1.75074 3.36586 0.820312 3.11914V16.918Z" fill="#2763BD"/>
</svg>
