<svg width="199" height="208" viewBox="0 0 199 208" fill="none" xmlns="http://www.w3.org/2000/svg">
<path fill-rule="evenodd" clip-rule="evenodd" d="M198.553 44.5704C198.108 44.5696 197.664 44.5732 197.219 44.5811C185.999 44.355 174.881 46.7384 164.74 51.5434C161.308 53.1866 158.003 55.0832 154.853 57.2176C152.766 58.6194 150.798 60.1912 148.97 61.9171L155.932 86.285C158.982 82.7079 162.771 79.834 167.037 77.8607C175.557 72.6108 185.366 69.8272 195.374 69.8193C196.428 69.8193 197.489 69.8303 198.553 69.8572V44.5704ZM198.553 117.325C178.258 119.408 162.531 124.529 151.372 132.688C145.853 136.327 141.345 141.302 138.265 147.151C135.185 153 133.635 159.533 133.758 166.142C133.453 171.863 134.426 177.581 136.606 182.879C138.786 188.178 142.117 192.925 146.359 196.776C155.062 204.156 166.805 207.846 181.588 207.846C187.609 207.846 193.294 207.346 198.553 206.183V188.714C196.287 189.059 193.988 189.195 191.684 189.117C183.828 189.515 176.085 187.123 169.822 182.364C167.145 180.189 165.009 177.421 163.583 174.28C162.158 171.139 161.481 167.71 161.607 164.262C161.511 160.023 162.492 155.829 164.459 152.073C166.425 148.317 169.313 145.12 172.851 142.784C179.139 138.13 187.707 135.004 198.553 133.405V117.325Z" fill="white"/>
<path fill-rule="evenodd" clip-rule="evenodd" d="M63.9362 29.1529C66.1051 23.1781 69.4356 17.6919 73.7356 13.0109C78.0063 8.70627 83.1207 5.33082 88.7578 3.09636C94.3948 0.861913 100.433 -0.183308 106.493 0.0262976C113.013 -0.127874 119.529 0.456027 125.918 1.76686V23.698C121.332 22.7768 116.67 22.2873 111.993 22.2359C108.956 22.0199 105.906 22.4409 103.041 23.472C100.175 24.5031 97.557 26.1215 95.3534 28.2234C91.42 32.9669 89.4299 39.0245 89.7836 45.1765L89.7836 79.6048L122.123 79.6048V103.276L89.7836 103.276L89.7836 207.954H61.0991L61.0991 47.8222C60.8031 41.4728 61.7674 35.1277 63.9362 29.1529Z" fill="white"/>
<path fill-rule="evenodd" clip-rule="evenodd" d="M0.761719 87.8641L0.761719 59.9728C7.98083 56.4661 16.3467 55.0007 24.8458 55.0007C28.2143 54.9811 31.5716 55.3905 34.8367 56.2191L34.8367 82.78C30.5472 81.9484 26.1865 81.5404 21.8172 81.5616H21.4343C14.1226 82.0035 7.04132 84.1722 0.761719 87.8641Z" fill="white"/>
</svg>
