<svg width="106" height="113" viewBox="0 0 106 113" fill="none" xmlns="http://www.w3.org/2000/svg">
<path fill-rule="evenodd" clip-rule="evenodd" d="M105.153 26.0021C104.916 26.0017 104.679 26.0036 104.442 26.0078C98.4868 25.8878 92.5856 27.1528 87.2032 29.7031C85.3818 30.5752 83.6278 31.5819 81.956 32.7147C80.8482 33.4587 79.8038 34.293 78.8335 35.209L82.5287 48.1423C84.1475 46.2438 86.1582 44.7184 88.4227 43.6711C92.9446 40.8847 98.1508 39.4073 103.462 39.4031C104.023 39.4031 104.587 39.4089 105.153 39.4233V26.0021ZM105.153 64.6169C94.3795 65.722 86.0314 68.4401 80.1084 72.7712C77.1793 74.7024 74.7862 77.343 73.1516 80.4473C71.5171 83.5517 70.6942 87.0191 70.7594 90.5269C70.5979 93.5635 71.1143 96.5979 72.2712 99.4102C73.428 102.222 75.1963 104.742 77.4478 106.786C82.0668 110.703 88.2995 112.661 96.1457 112.661C99.3423 112.661 102.361 112.396 105.153 111.778V102.507C103.949 102.69 102.728 102.763 101.504 102.721C97.3345 102.932 93.2247 101.663 89.9008 99.1368C88.4798 97.9822 87.3463 96.5135 86.5896 94.8462C85.833 93.179 85.4738 91.3588 85.5404 89.5291C85.4897 87.2793 86.0105 85.0534 87.0543 83.0597C88.098 81.0659 89.6304 79.3696 91.5082 78.1293C94.8466 75.6591 99.3947 73.9998 105.153 73.1514V64.6169Z" fill="#2763BD"/>
<path fill-rule="evenodd" clip-rule="evenodd" d="M33.7015 15.473C34.8526 12.3019 36.6203 9.39007 38.9026 6.9056C41.1693 4.6209 43.8838 2.82936 46.8757 1.64341C49.8676 0.457464 53.0723 -0.0972915 56.2887 0.0139576C59.7491 -0.0678696 63.2077 0.242038 66.5985 0.93777V12.5778C64.1646 12.0889 61.6903 11.8291 59.208 11.8018C57.5957 11.6872 55.9773 11.9106 54.4565 12.4579C52.9356 13.0051 51.5459 13.8641 50.3763 14.9797C48.2887 17.4974 47.2324 20.7124 47.4201 23.9776V42.2507L64.5846 42.2507V54.8145L47.4201 54.8145L47.4201 110.373H32.1957L32.1957 25.3818C32.0386 22.0119 32.5504 18.6442 33.7015 15.473Z" fill="#2763BD"/>
<path fill-rule="evenodd" clip-rule="evenodd" d="M0.171875 46.4462L0.171875 31.6422C4.00479 29.7789 8.44723 29.0004 12.9605 29.0004C14.7483 28.99 16.5302 29.2073 18.2632 29.647L18.2632 43.7444C15.9865 43.303 13.672 43.0864 11.353 43.0977H11.1498C7.26682 43.3324 3.50626 44.4846 0.171875 46.4462Z" fill="#2763BD"/>
</svg>
