<svg width="137" height="30" viewBox="0 0 137 30" fill="none" xmlns="http://www.w3.org/2000/svg">
<path fill-rule="evenodd" clip-rule="evenodd" d="M64.5345 2.37717C63.3809 3.57653 62.8041 5.16236 62.8041 7.13464V29.043H66.7293V14.7245H71.1574V11.4859H66.7293V9.0936V6.77483C66.7293 5.78869 66.9825 5.01577 67.489 4.45607C68.0236 3.89636 68.7833 3.61651 69.7681 3.61651C70.3309 3.61651 70.964 3.68314 71.6674 3.8164V0.817997C70.9921 0.658082 70.1058 0.578125 69.0084 0.578125C67.2076 0.578125 65.7163 1.17781 64.5345 2.37717ZM30.7729 29.2035C29.0809 29.2035 27.5664 28.8672 26.2295 28.1948C24.9136 27.5013 23.8796 26.5556 23.1276 25.3578C22.3965 24.1389 22.0309 22.7519 22.0309 21.1968C22.0309 20.4193 22.1876 19.5262 22.5009 18.5175C22.8351 17.5087 23.3051 16.479 23.9109 15.4283L29.3942 5.84554L29.6072 5.96577L32.2298 7.40816L27.101 16.8229C26.7314 17.5041 26.4356 18.2048 26.2138 18.9249C25.992 19.6451 25.8811 20.3165 25.8811 20.9394C25.8811 21.8541 26.0937 22.6813 26.5188 23.4209C26.9439 24.1411 27.5354 24.7055 28.2932 25.1142C29.0695 25.5229 29.9383 25.7273 30.8994 25.7273C31.9899 25.7273 32.9326 25.4354 33.7274 24.8515C34.5407 24.2676 35.3078 23.3236 36.0286 22.0196L41.5484 12.3014L41.5868 12.2279L41.5894 12.2293L41.8173 11.8279L42.3447 12.1293L45.0295 13.6L39.1075 23.8762C38.063 25.7045 36.8619 27.0495 35.5042 27.9111C34.1673 28.7727 32.5902 29.2035 30.7729 29.2035ZM135.92 19.2093C135.975 18.9551 136.002 18.5175 136.002 17.8963C136.002 15.7786 135.576 13.901 134.725 12.2633C133.873 10.5974 132.705 9.29858 131.222 8.3668C129.738 7.43503 128.062 6.96914 126.194 6.96914C124.216 6.96914 122.458 7.46327 120.919 8.45151C119.381 9.41152 118.172 10.7386 117.293 12.4327C116.441 14.1269 116.015 16.0328 116.015 18.1504C116.015 20.3246 116.455 22.2728 117.334 23.9952C118.241 25.6893 119.477 27.0164 121.043 27.9764C122.609 28.9082 124.381 29.3741 126.359 29.3741C127.98 29.3741 129.901 29.135 131.247 28.542C132.593 27.9208 133.507 27.0925 134.176 26.2398C134.571 25.7366 134.717 25.473 134.78 25.2904L132.602 23.18C132.177 23.9985 131.455 24.6875 130.745 25.2166C129.646 26.0354 127.843 26.367 126.359 26.367C125.123 26.367 124.01 26.0564 123.021 25.4352C122.059 24.7858 121.29 23.9246 120.713 22.8516C120.164 21.7505 119.889 20.5363 119.889 19.2093H135.92ZM131.469 13.2798C131.991 14.2963 132.252 15.4398 132.252 16.7104H119.889C119.971 14.7057 120.59 13.0821 121.743 11.8398C122.925 10.5692 124.395 9.93388 126.153 9.93388C127.334 9.93388 128.378 10.2303 129.285 10.8233C130.219 11.4162 130.947 12.2351 131.469 13.2798ZM112.815 26.4465C112.364 26.9422 111.731 27.4172 110.916 27.8715C110.121 28.3259 109.199 28.6976 108.147 28.9868C107.117 29.2759 106.011 29.4205 104.831 29.4205C102.813 29.4205 100.989 28.9661 99.3576 28.0574C97.7478 27.1281 96.46 25.827 95.4942 24.1541C94.5498 22.4813 94.0776 20.5193 94.0776 18.2682C94.0776 16.678 94.3674 15.2117 94.9469 13.8693C95.5264 12.5269 96.3313 11.36 97.3615 10.3687C98.3917 9.37737 99.5722 8.61324 100.903 8.07628C102.234 7.51866 103.64 7.23986 105.12 7.23986C106.344 7.23986 107.481 7.42573 108.533 7.79747C109.606 8.14856 110.54 8.61324 111.334 9.1915C112.15 9.74912 112.783 10.348 113.234 10.9883L110.916 13.3116C110.121 12.5269 109.241 11.8763 108.276 11.36C107.31 10.8437 106.258 10.5855 105.12 10.5855C103.833 10.5855 102.609 10.8953 101.45 11.5149C100.313 12.1345 99.3898 13.0225 98.6815 14.179C97.9732 15.3149 97.619 16.678 97.619 18.2682C97.619 20.003 97.9732 21.4487 98.6815 22.6052C99.4112 23.7617 100.366 24.6291 101.547 25.2074C102.749 25.765 104.037 26.0438 105.41 26.0438C106.677 26.0438 107.793 25.8063 108.758 25.3313C109.724 24.8357 110.497 24.2987 111.077 23.7204L112.815 26.4465ZM9.69454 29.2707C7.67092 29.2707 5.87068 28.8803 4.29384 28.0993C2.74327 27.3184 1.52121 26.2381 0.627667 24.8584C0.491424 24.6376 0.365883 24.412 0.251043 24.1815C0.160746 24.0003 0.0770647 23.8161 0 23.6289L3.6514 21.2791L3.65775 21.3057L3.6838 21.2888C3.94996 22.4002 4.49004 23.3584 5.30404 24.1635C6.51295 25.3094 8.06188 25.8823 9.95081 25.8823C11.6886 25.8823 13.099 25.4588 14.182 24.6119C15.265 23.74 15.8065 22.6315 15.8065 21.2864C15.8065 20.5569 15.6074 19.9037 15.2091 19.3268C15.0624 19.1316 14.893 18.945 14.701 18.7671C13.9126 17.9862 12.7825 17.4265 11.3108 17.0881L7.96001 16.3462C2.88781 15.3049 0.351719 12.7148 0.351719 8.57584C0.351719 7.01396 0.759071 5.6343 1.57378 4.43686C2.38848 3.21339 3.51855 2.27626 4.964 1.62547C6.43572 0.948661 8.10455 0.610254 9.97049 0.610254C11.889 0.610254 13.6104 1.01374 15.1347 1.82071C16.6589 2.60165 17.8547 3.70798 18.722 5.13971C18.7898 5.24968 18.8551 5.36092 18.9178 5.47344C19.044 5.69988 19.1598 5.93148 19.2651 6.16825L16.7181 7.97814L15.8867 8.58718C15.606 7.54411 15.1007 6.64564 14.3709 5.89176C13.2375 4.72097 11.7894 4.13558 10.0264 4.13558C8.38929 4.13558 7.05445 4.55906 6.02183 5.40601C4.98922 6.22805 4.47291 7.2992 4.47291 8.61944C4.47291 9.74041 4.81292 10.6745 5.49293 11.4219C5.66686 11.6066 5.86139 11.7776 6.07652 11.9346C6.67805 12.3092 7.411 12.5953 8.27538 12.7929L11.6656 13.5348C17.0532 14.6542 19.7469 17.2052 19.7469 21.188C19.7469 22.7499 19.3264 24.1426 18.4855 25.366C17.6445 26.5895 16.4618 27.5527 14.9376 28.2555C13.4133 28.9323 11.6656 29.2707 9.69454 29.2707Z" fill="black"/>
<path d="M51.1505 13.3965H51.2727C51.6316 11.5145 52.1858 10.6469 53.3453 9.59517C54.5324 8.51577 56.1751 8.09766 57.8592 8.09766C58.3285 8.09766 58.7841 8.15301 59.2258 8.26372V11.8755C58.6736 11.7648 58.0801 11.7095 57.4451 11.7095C55.5677 11.7095 54.0769 12.346 52.9726 13.6192C51.9617 15.2396 51.3852 17.1979 51.3161 19.1822V29.0628H47.4648V8.34675H51.3161L51.1505 13.3965Z" fill="black"/>
<path fill-rule="evenodd" clip-rule="evenodd" d="M74.4653 27.8547C75.652 28.8587 77.2527 29.3607 79.2674 29.3607C81.1165 29.3607 82.7375 29.0145 83.9794 28.0663C85.2213 27.0902 85.4907 26.6364 86.2464 25.1223H86.3879C86.3879 27.4371 86.5258 28.0081 86.8018 28.9842H90.5276C90.1965 27.3109 90.0309 25.3168 90.0309 23.002V15.8485C90.0309 14.2309 89.7623 12.4183 89.0171 11.1633C88.2719 9.88043 87.237 8.89037 85.9123 8.19314C84.5875 7.46803 83.0834 7.10547 81.3999 7.10547C79.744 7.10547 78.2675 7.42619 76.9703 8.06764C76.7115 8.19563 76.1173 8.4896 75.6218 8.84003C75.3008 9.06701 75.0306 9.27746 74.8205 9.48075L75.7516 12.8133C76.161 12.2917 76.6901 11.9679 77.2624 11.6644C78.6898 10.9073 79.662 10.5709 81.1247 10.5709C82.5598 10.5709 84.0762 10.7161 84.9869 11.6644C85.8977 12.6126 86.1809 14.203 86.1809 15.6812V16.6433L81.9997 17.0198C79.019 17.2708 76.7284 17.982 75.1276 19.1533C73.5269 20.2968 72.7266 21.8167 72.7266 23.7132C72.7266 25.4423 73.3061 26.8228 74.4653 27.8547ZM84.6491 25.0519C83.628 26.2232 82.2895 26.8089 80.6336 26.8089C79.3916 26.8089 78.3981 26.5021 77.6529 25.8885C76.9077 25.275 76.5352 24.4523 76.5352 23.4204C76.5352 22.1932 77.0457 21.2171 78.0669 20.492C79.088 19.739 80.5508 19.2788 82.4551 19.1115L86.2223 18.7768V20.5338C86.2223 22.3745 85.6979 23.8805 84.6491 25.0519Z" fill="black"/>
</svg>
