<svg width="137" height="29" viewBox="0 0 137 29" fill="none" xmlns="http://www.w3.org/2000/svg">
<path fill-rule="evenodd" clip-rule="evenodd" d="M64.5345 1.79904C63.3809 2.99841 62.8041 4.58423 62.8041 6.55652V28.4649H66.7293V14.1463H71.1574V10.9078H66.7293V8.51548V6.19671C66.7293 5.21056 66.9825 4.43764 67.489 3.87794C68.0236 3.31824 68.7833 3.03838 69.7681 3.03838C70.3309 3.03838 70.964 3.10502 71.6674 3.23828V0.239872C70.9921 0.079957 70.1058 0 69.0084 0C67.2076 0 65.7163 0.599681 64.5345 1.79904ZM30.7729 28.6253C29.0809 28.6253 27.5664 28.2891 26.2295 27.6166C24.9136 26.9231 23.8796 25.9775 23.1276 24.7796C22.3965 23.5608 22.0309 22.1738 22.0309 20.6187C22.0309 19.8412 22.1876 18.948 22.5009 17.9393C22.8351 16.9306 23.3051 15.9009 23.9109 14.8502L29.3942 5.26742L29.6072 5.38765L32.2298 6.83004L27.101 16.2448C26.7314 16.926 26.4356 17.6267 26.2138 18.3468C25.992 19.0669 25.8811 19.7384 25.8811 20.3612C25.8811 21.276 26.0937 22.1032 26.5188 22.8428C26.9439 23.5629 27.5354 24.1274 28.2932 24.5361C29.0695 24.9448 29.9383 25.1492 30.8994 25.1492C31.9899 25.1492 32.9326 24.8572 33.7274 24.2733C34.5407 23.6894 35.3078 22.7455 36.0286 21.4415L41.5484 11.7233L41.5868 11.6497L41.5894 11.6512L41.8173 11.2498L42.3447 11.5512L45.0295 13.0219L39.1075 23.2981C38.063 25.1264 36.8619 26.4713 35.5042 27.3329C34.1673 28.1945 32.5902 28.6253 30.7729 28.6253ZM135.92 18.6311C135.975 18.377 136.002 17.9394 136.002 17.3182C136.002 15.2005 135.576 13.3228 134.725 11.6852C133.873 10.0193 132.705 8.72045 131.222 7.78868C129.738 6.85691 128.062 6.39102 126.194 6.39102C124.216 6.39102 122.458 6.88514 120.919 7.87338C119.381 8.83339 118.172 10.1605 117.293 11.8546C116.441 13.5487 116.015 15.4546 116.015 17.5723C116.015 19.7464 116.455 21.6947 117.334 23.4171C118.241 25.1112 119.477 26.4383 121.043 27.3983C122.609 28.33 124.381 28.7959 126.359 28.7959C127.98 28.7959 129.901 28.5568 131.247 27.9639C132.593 27.3427 133.507 26.5143 134.176 25.6617C134.571 25.1585 134.717 24.8948 134.78 24.7123L132.602 22.6019C132.177 23.4203 131.455 24.1094 130.745 24.6384C129.646 25.4573 127.843 25.7888 126.359 25.7888C125.123 25.7888 124.01 25.4783 123.021 24.8571C122.059 24.2077 121.29 23.3465 120.713 22.2735C120.164 21.1723 119.889 19.9582 119.889 18.6311H135.92ZM131.469 12.7017C131.991 13.7181 132.252 14.8617 132.252 16.1323H119.889C119.971 14.1276 120.59 12.504 121.743 11.2617C122.925 9.99105 124.395 9.35575 126.153 9.35575C127.334 9.35575 128.378 9.65222 129.285 10.2452C130.219 10.8381 130.947 11.657 131.469 12.7017ZM112.815 25.8684C112.364 26.3641 111.731 26.8391 110.916 27.2934C110.121 27.7478 109.199 28.1195 108.147 28.4086C107.117 28.6978 106.011 28.8424 104.831 28.8424C102.813 28.8424 100.989 28.388 99.3576 27.4793C97.7478 26.5499 96.46 25.2488 95.4942 23.576C94.5498 21.9032 94.0776 19.9412 94.0776 17.6901C94.0776 16.0999 94.3674 14.6335 94.9469 13.2911C95.5264 11.9487 96.3313 10.7819 97.3615 9.79056C98.3917 8.79925 99.5722 8.03511 100.903 7.49815C102.234 6.94054 103.64 6.66173 105.12 6.66173C106.344 6.66173 107.481 6.8476 108.533 7.21935C109.606 7.57044 110.54 8.03511 111.334 8.61338C112.15 9.17099 112.783 9.76991 113.234 10.4101L110.916 12.7335C110.121 11.9487 109.241 11.2982 108.276 10.7819C107.31 10.2656 106.258 10.0074 105.12 10.0074C103.833 10.0074 102.609 10.3172 101.45 10.9368C100.313 11.5563 99.3898 12.4444 98.6815 13.6009C97.9732 14.7368 97.619 16.0999 97.619 17.6901C97.619 19.4249 97.9732 20.8705 98.6815 22.0271C99.4112 23.1836 100.366 24.051 101.547 24.6293C102.749 25.1869 104.037 25.4657 105.41 25.4657C106.677 25.4657 107.793 25.2282 108.758 24.7532C109.724 24.2575 110.497 23.7206 111.077 23.1423L112.815 25.8684ZM9.69454 28.6926C7.67092 28.6926 5.87068 28.3021 4.29384 27.5212C2.74327 26.7403 1.52121 25.66 0.627667 24.2803C0.491424 24.0595 0.365883 23.8338 0.251043 23.6034C0.160746 23.4222 0.0770647 23.238 0 23.0508L3.6514 20.7009L3.65775 20.7276L3.6838 20.7107C3.94996 21.822 4.49004 22.7803 5.30404 23.5854C6.51295 24.7313 8.06188 25.3042 9.95081 25.3042C11.6886 25.3042 13.099 24.8807 14.182 24.0338C15.265 23.1619 15.8065 22.0534 15.8065 20.7082C15.8065 19.9788 15.6074 19.3256 15.2091 18.7487C15.0624 18.5534 14.893 18.3669 14.701 18.189C13.9126 17.408 12.7825 16.8484 11.3108 16.51L7.96001 15.7681C2.88781 14.7268 0.351719 12.1367 0.351719 7.99771C0.351719 6.43584 0.759071 5.05618 1.57378 3.85873C2.38848 2.63526 3.51855 1.69813 4.964 1.04735C6.43572 0.370536 8.10455 0.0321291 9.97049 0.0321291C11.889 0.0321291 13.6104 0.435614 15.1347 1.24258C16.6589 2.02352 17.8547 3.12986 18.722 4.56158C18.7898 4.67155 18.8551 4.78279 18.9178 4.89531C19.044 5.12175 19.1598 5.35336 19.2651 5.59012L16.7181 7.40002L15.8867 8.00906C15.606 6.96599 15.1007 6.06751 14.3709 5.31364C13.2375 4.14285 11.7894 3.55746 10.0264 3.55746C8.38929 3.55746 7.05445 3.98093 6.02183 4.82788C4.98922 5.64993 4.47291 6.72107 4.47291 8.04132C4.47291 9.16229 4.81292 10.0964 5.49293 10.8437C5.66686 11.0285 5.86139 11.1994 6.07652 11.3565C6.67805 11.7311 7.411 12.0172 8.27538 12.2148L11.6656 12.9567C17.0532 14.076 19.7469 16.6271 19.7469 20.6099C19.7469 22.1718 19.3264 23.5644 18.4855 24.7879C17.6445 26.0114 16.4618 26.9746 14.9376 27.6774C13.4133 28.3542 11.6656 28.6926 9.69454 28.6926Z" fill="white"/>
<path d="M51.1505 12.8184H51.2727C51.6316 10.9364 52.1858 10.0688 53.3453 9.01704C54.5324 7.93765 56.1751 7.51953 57.8592 7.51953C58.3285 7.51953 58.7841 7.57488 59.2258 7.68559V11.2974C58.6736 11.1867 58.0801 11.1314 57.4451 11.1314C55.5677 11.1314 54.0769 11.7679 52.9726 13.041C51.9617 14.6615 51.3852 16.6198 51.3161 18.6041V28.4847H47.4648V7.76862L51.3161 7.76862L51.1505 12.8184Z" fill="white"/>
<path fill-rule="evenodd" clip-rule="evenodd" d="M74.4653 27.2766C75.652 28.2806 77.2527 28.7826 79.2674 28.7826C81.1165 28.7826 82.7375 28.4364 83.9794 27.4882C85.2213 26.5121 85.4907 26.0583 86.2464 24.5442H86.3879C86.3879 26.859 86.5258 27.43 86.8018 28.4061H90.5276C90.1965 26.7328 90.0309 24.7387 90.0309 22.4239V15.2704C90.0309 13.6528 89.7623 11.8402 89.0171 10.5852C88.2719 9.3023 87.237 8.31224 85.9123 7.61502C84.5875 6.8899 83.0834 6.52734 81.3999 6.52734C79.744 6.52734 78.2675 6.84807 76.9703 7.48952C76.7115 7.61751 76.1173 7.91147 75.6218 8.26191C75.3008 8.48889 75.0306 8.69934 74.8205 8.90262L75.7516 12.2351C76.161 11.7136 76.6901 11.3898 77.2624 11.0862C78.6898 10.3292 79.662 9.99276 81.1247 9.99276C82.5598 9.99276 84.0762 10.138 84.9869 11.0862C85.8977 12.0345 86.1809 13.6249 86.1809 15.103V16.0652L81.9997 16.4417C79.019 16.6927 76.7284 17.4039 75.1276 18.5752C73.5269 19.7187 72.7266 21.2386 72.7266 23.1351C72.7266 24.8642 73.3061 26.2447 74.4653 27.2766ZM84.6491 24.4737C83.628 25.6451 82.2895 26.2307 80.6336 26.2307C79.3916 26.2307 78.3981 25.924 77.6529 25.3104C76.9077 24.6969 76.5352 23.8741 76.5352 22.8422C76.5352 21.6151 77.0457 20.639 78.0669 19.9139C79.088 19.1609 80.5508 18.7007 82.4551 18.5334L86.2223 18.1987V19.9557C86.2223 21.7964 85.6979 23.3024 84.6491 24.4737Z" fill="white"/>
</svg>
