<svg width="196" height="171" viewBox="0 0 196 171" fill="none" xmlns="http://www.w3.org/2000/svg">
<path fill-rule="evenodd" clip-rule="evenodd" d="M0 167.214C7.05833 169.272 14.4098 170.259 21.8079 170.123C34.0149 170.417 46.0417 167.138 56.4103 160.689C67.4609 153.134 76.5055 143.002 82.7624 131.169L124.954 58.0652L101.874 44.9761L58.6382 120.029C54.683 127.857 49.0488 134.716 42.1377 140.115C36.2114 144.329 29.0769 146.503 21.8079 146.312C15.3132 146.426 8.89113 144.931 3.11429 141.96C2.03803 141.399 0.998505 140.778 0 140.101L0 167.214ZM0 73.6172L0 19.8606L11.3646 0L33.6438 12.4276L0 73.6172Z" fill="white"/>
<path fill-rule="evenodd" clip-rule="evenodd" d="M195.711 22.1287C192.493 23.6918 189.504 25.6605 186.832 28.0857C178.373 35.779 174.3 42.0102 171.689 55.9347H170.784L172.002 19H143.84V170.429H172.002V98.1956C172.102 89.5255 173.522 80.9212 176.214 72.6789C179.481 64.5431 184.991 57.502 192.102 52.3748C193.271 51.5321 194.475 50.7467 195.711 50.0204V22.1287Z" fill="white"/>
</svg>
