<svg width="105" height="91" viewBox="0 0 105 91" fill="none" xmlns="http://www.w3.org/2000/svg">
<path fill-rule="evenodd" clip-rule="evenodd" d="M0 88.7502C3.7458 89.8419 7.64712 90.3659 11.5732 90.2934C18.0521 90.4495 24.4355 88.7091 29.9386 85.2863C35.8038 81.2768 40.6042 75.8993 43.9251 69.6185L66.3183 30.8184L54.0686 23.8713L31.1211 63.7061C29.0219 67.8608 26.0315 71.501 22.3634 74.3669C19.218 76.6032 15.4313 77.7574 11.5732 77.6557C8.12611 77.7161 4.71758 76.9227 1.65149 75.3461C1.08078 75.0484 0.529523 74.719 0 74.3602L0 88.7502ZM0 39.0701L0 10.5386L6.03036 0L17.8552 6.59602L0 39.0701Z" fill="#2763BD"/>
<path fill-rule="evenodd" clip-rule="evenodd" d="M104.167 7.66257C102.461 8.49191 100.876 9.53616 99.4588 10.8223C94.9691 14.9056 92.8073 18.2128 91.4216 25.6033H90.9412L91.5879 6H76.6406V86.3717H91.5879V48.0335C91.6409 43.4318 92.3948 38.865 93.8235 34.4904C95.5574 30.1722 98.4817 26.4351 102.256 23.7138C102.875 23.2675 103.513 22.8515 104.167 22.4667V7.66257Z" fill="#2763BD"/>
</svg>
