<svg width="205" height="213" viewBox="0 0 205 213" fill="none" xmlns="http://www.w3.org/2000/svg">
<path d="M86.0186 95.9535L60.9893 90.5229C55.6316 89.3831 50.4786 87.4346 45.7072 84.7443C43.8151 83.381 42.076 81.817 40.5203 80.0796C35.4015 74.3529 32.6949 66.869 32.9663 59.1928C32.857 54.5877 33.8412 50.0222 35.8381 45.871C37.8351 41.7199 40.7878 38.1013 44.454 35.3123C52.9041 28.741 63.4195 25.3963 74.1132 25.8785C80.0895 25.6838 86.0401 26.745 91.5807 28.9936C97.1212 31.2422 102.128 34.6282 106.279 38.9327C111.721 44.5959 115.597 51.5781 117.523 59.1928L131.865 48.5058L142.308 41.2651C141.543 39.5245 140.672 37.7839 139.767 36.113C139.28 35.2775 138.827 34.4421 138.305 33.6414C131.981 23.0876 122.796 14.542 111.814 8.99504C99.9986 2.85422 86.8348 -0.233275 73.5214 0.013738C60.7932 -0.211316 48.1715 2.3677 36.5518 7.56778C26.3635 11.9615 17.6689 19.2171 11.5225 28.4545C5.43624 37.5354 2.27758 48.2627 2.4716 59.1928C2.4716 89.8963 21.2 109.124 58.657 116.875L83.4078 122.375C92.7495 124.115 101.419 128.431 108.437 134.838C111.286 137.427 113.583 140.565 115.19 144.063C116.358 147.094 116.949 150.317 116.931 153.566C117.013 158.344 115.964 163.073 113.871 167.368C111.778 171.663 108.699 175.403 104.886 178.282C95.8274 184.917 84.7735 188.258 73.5562 187.751C60.8404 188.223 48.4572 183.628 39.1278 174.975C33.1865 169.127 29.0226 161.717 27.118 153.601L24.159 155.516L0 170.937C0.55698 172.329 1.18358 173.687 1.845 175.045C2.50641 176.402 3.62037 178.526 4.6299 180.057C11.3095 190.383 20.6712 198.698 31.7131 204.112C44.1338 210.096 57.7872 213.078 71.5719 212.815C84.8187 213.085 97.9734 210.558 110.178 205.4C120.722 200.784 129.792 193.353 136.39 183.922C142.676 174.761 145.961 163.874 145.79 152.765C145.79 123.222 125.866 104.285 86.0186 95.9535Z" fill="white"/>
<path fill-rule="evenodd" clip-rule="evenodd" d="M204.043 64L175.696 113.539C171.459 120.697 167.96 128.267 165.253 136.132C163.121 142.442 161.948 149.037 161.771 155.695C161.427 166.274 164.14 176.728 169.585 185.804C175.031 194.881 182.978 202.194 192.475 206.868C196.209 208.689 200.08 210.182 204.043 211.337V184.221C200.171 181.595 196.916 178.134 194.529 174.076C191.468 168.789 189.881 162.779 189.934 156.67C190.004 151.818 190.814 147.005 192.336 142.398C193.962 137.222 196.096 132.22 198.706 127.464L204.043 117.757V64Z" fill="white"/>
</svg>
