<svg width="109" height="114" viewBox="0 0 109 114" fill="none" xmlns="http://www.w3.org/2000/svg">
<path d="M45.6548 50.9278L32.3704 48.0455C29.5268 47.4405 26.7918 46.4063 24.2593 44.9784C23.2551 44.2548 22.332 43.4247 21.5063 42.5026C18.7895 39.4631 17.353 35.491 17.497 31.4169C17.439 28.9727 17.9614 26.5495 19.0213 24.3463C20.0811 22.143 21.6483 20.2225 23.5942 18.7422C28.0791 15.2544 33.6602 13.4792 39.3359 13.7351C42.5079 13.6318 45.6662 14.1951 48.6069 15.3885C51.5476 16.582 54.2052 18.3791 56.408 20.6637C59.2967 23.6695 61.3534 27.3753 62.3758 31.4169L69.988 25.7447L75.5309 21.9016C75.1244 20.9778 74.6625 20.054 74.1821 19.1671C73.9234 18.7237 73.6833 18.2803 73.4061 17.8553C70.0497 12.2538 65.1745 7.71821 59.3457 4.77416C53.0747 1.51489 46.088 -0.123812 39.0218 0.00729148C32.2663 -0.112157 25.5672 1.25667 19.4001 4.01663C13.9925 6.34863 9.37783 10.1996 6.11564 15.1024C2.88531 19.9221 1.20884 25.6157 1.31181 31.4169C1.31181 47.7129 11.252 57.918 31.1325 62.032L44.2691 64.9513C49.2273 65.8745 53.8286 68.1656 57.5535 71.5657C59.0655 72.9401 60.2846 74.6054 61.1379 76.4619C61.7578 78.0709 62.0711 79.7817 62.0617 81.506C62.1051 84.0416 61.5487 86.5516 60.4377 88.8313C59.3267 91.111 57.6927 93.0959 55.6689 94.6241C50.8609 98.1456 44.994 99.9187 39.0403 99.6496C32.2913 99.9005 25.7189 97.4616 20.7673 92.8688C17.6139 89.7652 15.4039 85.832 14.393 81.5244L12.8225 82.5406L0 90.7256C0.29562 91.4646 0.628192 92.1852 0.97924 92.9058C1.33029 93.6264 1.92153 94.7534 2.45734 95.5664C6.00255 101.047 10.9713 105.46 16.8319 108.333C23.4242 111.51 30.6709 113.092 37.9872 112.953C45.0179 113.096 51.9999 111.755 58.4773 109.017C64.0739 106.567 68.8875 102.623 72.3899 97.6172C75.7261 92.7552 77.4693 86.9768 77.3785 81.081C77.3785 65.4008 66.8039 55.3498 45.6548 50.9278Z" fill="#2763BD"/>
<path fill-rule="evenodd" clip-rule="evenodd" d="M108.301 35L93.2537 61.2962C91.0048 65.0953 89.1477 69.1129 87.7108 73.2873C86.5796 76.6368 85.9568 80.1369 85.8632 83.6709C85.6802 89.2857 87.1201 94.8342 90.0104 99.6514C92.9008 104.469 97.1189 108.35 102.159 110.831C104.142 111.798 106.197 112.59 108.301 113.204V98.8121C106.245 97.4184 104.517 95.581 103.249 93.4264C101.625 90.6206 100.783 87.4304 100.81 84.1883C100.848 81.613 101.277 79.0585 102.085 76.613C102.948 73.866 104.081 71.2109 105.466 68.6867L108.301 63.5318V35Z" fill="#2763BD"/>
</svg>
